<?xml version="1.0" encoding="UTF-8" standalone="no"?>
<svg version="1.1"
     width="82.72mm" 
     height="75.43mm"
     viewBox="-86.29 -14.03 82.72 75.43"
     preserveAspectRatio="none"
     xmlns="http://www.w3.org/2000/svg">

<polygon points="-3.57,-13.45 -44.93,-14.03 -86.29,61.39 -3.57,24.56" fill="white"/>
<polygon points="-35.08,-10.27 -36.66,-6.31 -42.76,-6.00 -40.80,-10.17" fill="blue"/>
<polygon points="-6.53,-10.78 -6.63,-7.86 -9.93,-7.69 -9.70,-10.72" fill="blue"/>
<polygon points="-50.84,29.32 -54.48,38.46 -65.61,42.68 -60.84,32.52" fill="blue"/>
<polygon points="-7.51,15.45 -7.71,20.70 -12.28,22.43 -11.84,16.84" fill="blue"/>
<polygon points="-18.61,0.16 -28.39,1.40 -31.15,11.50 -20.12,9.12" fill="blue"/>
<polygon points="-5.48,-7.17 -5.51,-5.62 -3.57,-6.54" fill="lawngreen"/>
<polyline points="-3.57,-13.45 -44.93,-14.03 -86.29,61.39 -3.57,24.56 -3.57,-13.45" stroke="black" stroke-width="1px" stroke-opacity="0.3" fill="none"/></svg>