<?xml version="1.0" encoding="UTF-8" standalone="no"?>
<svg version="1.1"
     width="80.33mm" 
     height="70.62mm"
     viewBox="-81.96 -52.51 80.33 70.62"
     preserveAspectRatio="none"
     xmlns="http://www.w3.org/2000/svg">

<polygon points="-1.63,15.09 -41.80,18.11 -81.96,-52.51 -1.63,-21.73" fill="white"/>
<polygon points="-41.80,18.11 -43.91,14.39 -37.78,14.12 -36.06,17.68" fill="black"/>
<polygon points="-36.06,17.68 -37.78,14.12 -32.23,13.88 -30.84,17.28" fill="white"/>
<polygon points="-30.84,17.28 -32.23,13.88 -27.19,13.66 -26.08,16.93" fill="black"/>
<polygon points="-26.08,16.93 -27.19,13.66 -22.59,13.46 -21.71,16.60" fill="white"/>
<polygon points="-21.71,16.60 -22.59,13.46 -18.37,13.28 -17.70,16.30" fill="black"/>
<polygon points="-17.70,16.30 -18.37,13.28 -14.49,13.11 -13.99,16.02" fill="white"/>
<polygon points="-13.99,16.02 -14.49,13.11 -10.90,12.95 -10.56,15.76" fill="black"/>
<polygon points="-10.56,15.76 -10.90,12.95 -7.58,12.81 -7.37,15.52" fill="white"/>
<polygon points="-7.37,15.52 -7.58,12.81 -4.50,12.68 -4.40,15.30" fill="black"/>
<polygon points="-4.40,15.30 -4.50,12.68 -1.63,12.55 -1.63,15.09" fill="white"/>
<polygon points="-43.91,14.39 -46.26,10.26 -39.68,10.20 -37.78,14.12" fill="white"/>
<polygon points="-37.78,14.12 -39.68,10.20 -33.76,10.14 -32.23,13.88" fill="black"/>
<polygon points="-32.23,13.88 -33.76,10.14 -28.41,10.09 -27.19,13.66" fill="white"/>
<polygon points="-27.19,13.66 -28.41,10.09 -23.54,10.04 -22.59,13.46" fill="black"/>
<polygon points="-22.59,13.46 -23.54,10.04 -19.10,10.00 -18.37,13.28" fill="white"/>
<polygon points="-18.37,13.28 -19.10,10.00 -15.02,9.96 -14.49,13.11" fill="black"/>
<polygon points="-14.49,13.11 -15.02,9.96 -11.27,9.92 -10.90,12.95" fill="white"/>
<polygon points="-10.90,12.95 -11.27,9.92 -7.81,9.89 -7.58,12.81" fill="black"/>
<polygon points="-7.58,12.81 -7.81,9.89 -4.61,9.86 -4.50,12.68" fill="white"/>
<polygon points="-4.50,12.68 -4.61,9.86 -1.63,9.83 -1.63,12.55" fill="black"/>
<polygon points="-46.26,10.26 -48.88,5.65 -41.80,5.83 -39.68,10.20" fill="black"/>
<polygon points="-39.68,10.20 -41.80,5.83 -35.45,6.00 -33.76,10.14" fill="white"/>
<polygon points="-33.76,10.14 -35.45,6.00 -29.75,6.16 -28.41,10.09" fill="black"/>
<polygon points="-28.41,10.09 -29.75,6.16 -24.58,6.29 -23.54,10.04" fill="white"/>
<polygon points="-23.54,10.04 -24.58,6.29 -19.89,6.42 -19.10,10.00" fill="black"/>
<polygon points="-19.10,10.00 -19.89,6.42 -15.60,6.53 -15.02,9.96" fill="white"/>
<polygon points="-15.02,9.96 -15.60,6.53 -11.67,6.64 -11.27,9.92" fill="black"/>
<polygon points="-11.27,9.92 -11.67,6.64 -8.06,6.74 -7.81,9.89" fill="white"/>
<polygon points="-7.81,9.89 -8.06,6.74 -4.72,6.83 -4.61,9.86" fill="black"/>
<polygon points="-4.61,9.86 -4.72,6.83 -1.63,6.91 -1.63,9.83" fill="white"/>
<polygon points="-48.88,5.65 -51.84,0.45 -44.16,0.96 -41.80,5.83" fill="white"/>
<polygon points="-41.80,5.83 -44.16,0.96 -37.33,1.41 -35.45,6.00" fill="black"/>
<polygon points="-35.45,6.00 -37.33,1.41 -31.23,1.81 -29.75,6.16" fill="white"/>
<polygon points="-29.75,6.16 -31.23,1.81 -25.73,2.17 -24.58,6.29" fill="black"/>
<polygon points="-24.58,6.29 -25.73,2.17 -20.76,2.50 -19.89,6.42" fill="white"/>
<polygon points="-19.89,6.42 -20.76,2.50 -16.24,2.80 -15.60,6.53" fill="black"/>
<polygon points="-15.60,6.53 -16.24,2.80 -12.11,3.07 -11.67,6.64" fill="white"/>
<polygon points="-11.67,6.64 -12.11,3.07 -8.33,3.32 -8.06,6.74" fill="black"/>
<polygon points="-8.06,6.74 -8.33,3.32 -4.85,3.55 -4.72,6.83" fill="white"/>
<polygon points="-4.72,6.83 -4.85,3.55 -1.63,3.76 -1.63,6.91" fill="black"/>
<polygon points="-51.84,0.45 -55.18,-5.43 -46.82,-4.53 -44.16,0.96" fill="black"/>
<polygon points="-44.16,0.96 -46.82,-4.53 -39.43,-3.73 -37.33,1.41" fill="white"/>
<polygon points="-37.33,1.41 -39.43,-3.73 -32.87,-3.02 -31.23,1.81" fill="black"/>
<polygon points="-31.23,1.81 -32.87,-3.02 -27.00,-2.38 -25.73,2.17" fill="white"/>
<polygon points="-25.73,2.17 -27.00,-2.38 -21.71,-1.81 -20.76,2.50" fill="black"/>
<polygon points="-20.76,2.50 -21.71,-1.81 -16.93,-1.29 -16.24,2.80" fill="white"/>
<polygon points="-16.24,2.80 -16.93,-1.29 -12.59,-0.82 -12.11,3.07" fill="black"/>
<polygon points="-12.11,3.07 -12.59,-0.82 -8.62,-0.39 -8.33,3.32" fill="white"/>
<polygon points="-8.33,3.32 -8.62,-0.39 -4.98,-0.00 -4.85,3.55" fill="black"/>
<polygon points="-4.85,3.55 -4.98,-0.00 -1.63,0.36 -1.63,3.76" fill="white"/>
<polygon points="-55.18,-5.43 -59.01,-12.16 -49.83,-10.74 -46.82,-4.53" fill="white"/>
<polygon points="-46.82,-4.53 -49.83,-10.74 -41.80,-9.51 -39.43,-3.73" fill="black"/>
<polygon points="-39.43,-3.73 -41.80,-9.51 -34.71,-8.41 -32.87,-3.02" fill="white"/>
<polygon points="-32.87,-3.02 -34.71,-8.41 -28.41,-7.44 -27.00,-2.38" fill="black"/>
<polygon points="-27.00,-2.38 -28.41,-7.44 -22.77,-6.58 -21.71,-1.81" fill="white"/>
<polygon points="-21.71,-1.81 -22.77,-6.58 -17.70,-5.79 -16.93,-1.29" fill="black"/>
<polygon points="-16.93,-1.29 -17.70,-5.79 -13.11,-5.09 -12.59,-0.82" fill="white"/>
<polygon points="-12.59,-0.82 -13.11,-5.09 -8.94,-4.44 -8.62,-0.39" fill="black"/>
<polygon points="-8.62,-0.39 -8.94,-4.44 -5.13,-3.86 -4.98,-0.00" fill="white"/>
<polygon points="-4.98,-0.00 -5.13,-3.86 -1.63,-3.32 -1.63,0.36" fill="black"/>
<polygon points="-59.01,-12.16 -63.42,-19.92 -53.27,-17.85 -49.83,-10.74" fill="black"/>
<polygon points="-49.83,-10.74 -53.27,-17.85 -44.47,-16.06 -41.80,-9.51" fill="white"/>
<polygon points="-41.80,-9.51 -44.47,-16.06 -36.78,-14.49 -34.71,-8.41" fill="black"/>
<polygon points="-34.71,-8.41 -36.78,-14.49 -29.98,-13.10 -28.41,-7.44" fill="white"/>
<polygon points="-28.41,-7.44 -29.98,-13.10 -23.95,-11.87 -22.77,-6.58" fill="black"/>
<polygon points="-22.77,-6.58 -23.95,-11.87 -18.54,-10.77 -17.70,-5.79" fill="white"/>
<polygon points="-17.70,-5.79 -18.54,-10.77 -13.68,-9.78 -13.11,-5.09" fill="black"/>
<polygon points="-13.11,-5.09 -13.68,-9.78 -9.28,-8.88 -8.94,-4.44" fill="white"/>
<polygon points="-8.94,-4.44 -9.28,-8.88 -5.28,-8.07 -5.13,-3.86" fill="black"/>
<polygon points="-5.13,-3.86 -5.28,-8.07 -1.63,-7.32 -1.63,-3.32" fill="white"/>
<polygon points="-63.42,-19.92 -68.57,-28.97 -57.24,-26.05 -53.27,-17.85" fill="white"/>
<polygon points="-53.27,-17.85 -57.24,-26.05 -47.53,-23.54 -44.47,-16.06" fill="black"/>
<polygon points="-44.47,-16.06 -47.53,-23.54 -39.12,-21.37 -36.78,-14.49" fill="white"/>
<polygon points="-36.78,-14.49 -39.12,-21.37 -31.76,-19.47 -29.98,-13.10" fill="black"/>
<polygon points="-29.98,-13.10 -31.76,-19.47 -25.26,-17.79 -23.95,-11.87" fill="white"/>
<polygon points="-23.95,-11.87 -25.26,-17.79 -19.48,-16.30 -18.54,-10.77" fill="black"/>
<polygon points="-18.54,-10.77 -19.48,-16.30 -14.32,-14.96 -13.68,-9.78" fill="white"/>
<polygon points="-13.68,-9.78 -14.32,-14.96 -9.67,-13.76 -9.28,-8.88" fill="black"/>
<polygon points="-9.28,-8.88 -9.67,-13.76 -5.46,-12.68 -5.28,-8.07" fill="white"/>
<polygon points="-5.28,-8.07 -5.46,-12.68 -1.63,-11.69 -1.63,-7.32" fill="black"/>
<polygon points="-68.57,-28.97 -74.66,-39.67 -61.88,-35.61 -57.24,-26.05" fill="black"/>
<polygon points="-57.24,-26.05 -61.88,-35.61 -51.06,-32.18 -47.53,-23.54" fill="white"/>
<polygon points="-47.53,-23.54 -51.06,-32.18 -41.80,-29.23 -39.12,-21.37" fill="black"/>
<polygon points="-39.12,-21.37 -41.80,-29.23 -33.76,-26.68 -31.76,-19.47" fill="white"/>
<polygon points="-31.76,-19.47 -33.76,-26.68 -26.73,-24.44 -25.26,-17.79" fill="black"/>
<polygon points="-25.26,-17.79 -26.73,-24.44 -20.53,-22.47 -19.48,-16.30" fill="white"/>
<polygon points="-19.48,-16.30 -20.53,-22.47 -15.02,-20.72 -14.32,-14.96" fill="black"/>
<polygon points="-14.32,-14.96 -15.02,-20.72 -10.09,-19.16 -9.67,-13.76" fill="white"/>
<polygon points="-9.67,-13.76 -10.09,-19.16 -5.65,-17.75 -5.46,-12.68" fill="black"/>
<polygon points="-5.46,-12.68 -5.65,-17.75 -1.63,-16.47 -1.63,-11.69" fill="white"/>
<polygon points="-74.66,-39.67 -81.96,-52.51 -67.35,-46.91 -61.88,-35.61" fill="white"/>
<polygon points="-61.88,-35.61 -67.35,-46.91 -55.18,-42.25 -51.06,-32.18" fill="black"/>
<polygon points="-51.06,-32.18 -55.18,-42.25 -44.89,-38.30 -41.80,-29.23" fill="white"/>
<polygon points="-41.80,-29.23 -44.89,-38.30 -36.06,-34.92 -33.76,-26.68" fill="black"/>
<polygon points="-33.76,-26.68 -36.06,-34.92 -28.41,-31.99 -26.73,-24.44" fill="white"/>
<polygon points="-26.73,-24.44 -28.41,-31.99 -21.71,-29.42 -20.53,-22.47" fill="black"/>
<polygon points="-20.53,-22.47 -21.71,-29.42 -15.81,-27.16 -15.02,-20.72" fill="white"/>
<polygon points="-15.02,-20.72 -15.81,-27.16 -10.56,-25.15 -10.09,-19.16" fill="black"/>
<polygon points="-10.09,-19.16 -10.56,-25.15 -5.86,-23.35 -5.65,-17.75" fill="white"/>
<polygon points="-5.65,-17.75 -5.86,-23.35 -1.63,-21.73 -1.63,-16.47" fill="black"/>
<polygon points="-3.48,9.12 -3.52,7.63 -1.63,8.40" fill="lawngreen"/>
<polyline points="-1.63,15.09 -41.80,18.11 -81.96,-52.51 -1.63,-21.73 -1.63,15.09" stroke="black" stroke-width="1px" stroke-opacity="0.3" fill="none"/></svg>