<?xml version="1.0" encoding="UTF-8" standalone="no"?>
<svg version="1.1"
     width="83.24mm" 
     height="66.09mm"
     viewBox="-86.94 -13.41 83.24 66.09"
     preserveAspectRatio="none"
     xmlns="http://www.w3.org/2000/svg">

<polygon points="-3.70,-9.90 -45.32,-13.41 -86.94,52.68 -3.70,24.90" fill="white"/>
<polygon points="-35.41,-9.26 -37.00,-5.75 -43.13,-5.90 -41.16,-9.58" fill="blue"/>
<polygon points="-6.68,-7.66 -6.79,-5.00 -10.11,-5.08 -9.87,-7.84" fill="blue"/>
<polygon points="-51.27,25.86 -54.93,33.97 -66.13,37.04 -61.33,28.07" fill="blue"/>
<polygon points="-7.67,16.28 -7.87,21.07 -12.47,22.33 -12.03,17.24" fill="blue"/>
<polygon points="-18.84,1.48 -28.67,1.92 -31.45,10.96 -20.35,9.58" fill="blue"/>
<polygon points="-5.82,3.35 -5.86,5.07 -3.70,4.02" fill="lawngreen"/>
<polyline points="-3.70,-9.90 -45.32,-13.41 -86.94,52.68 -3.70,24.90 -3.70,-9.90" stroke="black" stroke-width="1px" stroke-opacity="0.3" fill="none"/></svg>