<?xml version="1.0" encoding="UTF-8" standalone="no"?>
<svg version="1.1"
     width="80.40mm" 
     height="60.70mm"
     viewBox="-82.17 -42.79 80.40 60.70"
     preserveAspectRatio="none"
     xmlns="http://www.w3.org/2000/svg">

<polygon points="-1.77,11.61 -41.97,17.91 -82.17,-42.79 -1.77,-21.89" fill="white"/>
<polygon points="-41.97,17.91 -44.09,14.72 -37.95,13.93 -36.23,17.01" fill="black"/>
<polygon points="-36.23,17.01 -37.95,13.93 -32.40,13.22 -31.01,16.19" fill="white"/>
<polygon points="-31.01,16.19 -32.40,13.22 -27.35,12.57 -26.24,15.44" fill="black"/>
<polygon points="-26.24,15.44 -27.35,12.57 -22.75,11.98 -21.87,14.76" fill="white"/>
<polygon points="-21.87,14.76 -22.75,11.98 -18.52,11.44 -17.85,14.13" fill="black"/>
<polygon points="-17.85,14.13 -18.52,11.44 -14.64,10.95 -14.14,13.55" fill="white"/>
<polygon points="-14.14,13.55 -14.64,10.95 -11.05,10.49 -10.71,13.01" fill="black"/>
<polygon points="-10.71,13.01 -11.05,10.49 -7.73,10.06 -7.52,12.51" fill="white"/>
<polygon points="-7.52,12.51 -7.73,10.06 -4.64,9.67 -4.55,12.04" fill="black"/>
<polygon points="-4.55,12.04 -4.64,9.67 -1.77,9.30 -1.77,11.61" fill="white"/>
<polygon points="-44.09,14.72 -46.44,11.17 -39.86,10.53 -37.95,13.93" fill="white"/>
<polygon points="-37.95,13.93 -39.86,10.53 -33.93,9.95 -32.40,13.22" fill="black"/>
<polygon points="-32.40,13.22 -33.93,9.95 -28.57,9.43 -27.35,12.57" fill="white"/>
<polygon points="-27.35,12.57 -28.57,9.43 -23.70,8.96 -22.75,11.98" fill="black"/>
<polygon points="-22.75,11.98 -23.70,8.96 -19.25,8.52 -18.52,11.44" fill="white"/>
<polygon points="-18.52,11.44 -19.25,8.52 -15.17,8.13 -14.64,10.95" fill="black"/>
<polygon points="-14.64,10.95 -15.17,8.13 -11.42,7.76 -11.05,10.49" fill="white"/>
<polygon points="-11.05,10.49 -11.42,7.76 -7.96,7.42 -7.73,10.06" fill="black"/>
<polygon points="-7.73,10.06 -7.96,7.42 -4.75,7.11 -4.64,9.67" fill="white"/>
<polygon points="-4.64,9.67 -4.75,7.11 -1.77,6.82 -1.77,9.30" fill="black"/>
<polygon points="-46.44,11.17 -49.06,7.20 -41.97,6.74 -39.86,10.53" fill="black"/>
<polygon points="-39.86,10.53 -41.97,6.74 -35.62,6.34 -33.93,9.95" fill="white"/>
<polygon points="-33.93,9.95 -35.62,6.34 -29.91,5.97 -28.57,9.43" fill="black"/>
<polygon points="-28.57,9.43 -29.91,5.97 -24.74,5.64 -23.70,8.96" fill="white"/>
<polygon points="-23.70,8.96 -24.74,5.64 -20.05,5.34 -19.25,8.52" fill="black"/>
<polygon points="-19.25,8.52 -20.05,5.34 -15.76,5.06 -15.17,8.13" fill="white"/>
<polygon points="-15.17,8.13 -15.76,5.06 -11.82,4.81 -11.42,7.76" fill="black"/>
<polygon points="-11.42,7.76 -11.82,4.81 -8.21,4.58 -7.96,7.42" fill="white"/>
<polygon points="-7.96,7.42 -8.21,4.58 -4.87,4.36 -4.75,7.11" fill="black"/>
<polygon points="-4.75,7.11 -4.87,4.36 -1.77,4.16 -1.77,6.82" fill="white"/>
<polygon points="-49.06,7.20 -52.02,2.74 -44.34,2.52 -41.97,6.74" fill="white"/>
<polygon points="-41.97,6.74 -44.34,2.52 -37.50,2.32 -35.62,6.34" fill="black"/>
<polygon points="-35.62,6.34 -37.50,2.32 -31.39,2.15 -29.91,5.97" fill="white"/>
<polygon points="-29.91,5.97 -31.39,2.15 -25.89,1.99 -24.74,5.64" fill="black"/>
<polygon points="-24.74,5.64 -25.89,1.99 -20.92,1.85 -20.05,5.34" fill="white"/>
<polygon points="-20.05,5.34 -20.92,1.85 -16.39,1.72 -15.76,5.06" fill="black"/>
<polygon points="-15.76,5.06 -16.39,1.72 -12.26,1.60 -11.82,4.81" fill="white"/>
<polygon points="-11.82,4.81 -12.26,1.60 -8.47,1.49 -8.21,4.58" fill="black"/>
<polygon points="-8.21,4.58 -8.47,1.49 -4.99,1.39 -4.87,4.36" fill="white"/>
<polygon points="-4.87,4.36 -4.99,1.39 -1.77,1.30 -1.77,4.16" fill="black"/>
<polygon points="-52.02,2.74 -55.37,-2.32 -47.00,-2.24 -44.34,2.52" fill="black"/>
<polygon points="-44.34,2.52 -47.00,-2.24 -39.61,-2.17 -37.50,2.32" fill="white"/>
<polygon points="-37.50,2.32 -39.61,-2.17 -33.04,-2.10 -31.39,2.15" fill="black"/>
<polygon points="-31.39,2.15 -33.04,-2.10 -27.16,-2.04 -25.89,1.99" fill="white"/>
<polygon points="-25.89,1.99 -27.16,-2.04 -21.87,-1.99 -20.92,1.85" fill="black"/>
<polygon points="-20.92,1.85 -21.87,-1.99 -17.09,-1.94 -16.39,1.72" fill="white"/>
<polygon points="-16.39,1.72 -17.09,-1.94 -12.74,-1.90 -12.26,1.60" fill="black"/>
<polygon points="-12.26,1.60 -12.74,-1.90 -8.76,-1.86 -8.47,1.49" fill="white"/>
<polygon points="-8.47,1.49 -8.76,-1.86 -5.12,-1.82 -4.99,1.39" fill="black"/>
<polygon points="-4.99,1.39 -5.12,-1.82 -1.77,-1.79 -1.77,1.30" fill="white"/>
<polygon points="-55.37,-2.32 -59.20,-8.10 -50.01,-7.63 -47.00,-2.24" fill="white"/>
<polygon points="-47.00,-2.24 -50.01,-7.63 -41.97,-7.21 -39.61,-2.17" fill="black"/>
<polygon points="-39.61,-2.17 -41.97,-7.21 -34.88,-6.85 -33.04,-2.10" fill="white"/>
<polygon points="-33.04,-2.10 -34.88,-6.85 -28.57,-6.52 -27.16,-2.04" fill="black"/>
<polygon points="-27.16,-2.04 -28.57,-6.52 -22.93,-6.23 -21.87,-1.99" fill="white"/>
<polygon points="-21.87,-1.99 -22.93,-6.23 -17.85,-5.97 -17.09,-1.94" fill="black"/>
<polygon points="-17.09,-1.94 -17.85,-5.97 -13.26,-5.73 -12.74,-1.90" fill="white"/>
<polygon points="-12.74,-1.90 -13.26,-5.73 -9.08,-5.52 -8.76,-1.86" fill="black"/>
<polygon points="-8.76,-1.86 -9.08,-5.52 -5.27,-5.32 -5.12,-1.82" fill="white"/>
<polygon points="-5.12,-1.82 -5.27,-5.32 -1.77,-5.14 -1.77,-1.79" fill="black"/>
<polygon points="-59.20,-8.10 -63.62,-14.77 -53.46,-13.79 -50.01,-7.63" fill="black"/>
<polygon points="-50.01,-7.63 -53.46,-13.79 -44.65,-12.94 -41.97,-7.21" fill="white"/>
<polygon points="-41.97,-7.21 -44.65,-12.94 -36.95,-12.19 -34.88,-6.85" fill="black"/>
<polygon points="-34.88,-6.85 -36.95,-12.19 -30.15,-11.53 -28.57,-6.52" fill="white"/>
<polygon points="-28.57,-6.52 -30.15,-11.53 -24.11,-10.95 -22.93,-6.23" fill="black"/>
<polygon points="-22.93,-6.23 -24.11,-10.95 -18.70,-10.42 -17.85,-5.97" fill="white"/>
<polygon points="-17.85,-5.97 -18.70,-10.42 -13.83,-9.95 -13.26,-5.73" fill="black"/>
<polygon points="-13.26,-5.73 -13.83,-9.95 -9.43,-9.52 -9.08,-5.52" fill="white"/>
<polygon points="-9.08,-5.52 -9.43,-9.52 -5.43,-9.14 -5.27,-5.32" fill="black"/>
<polygon points="-5.27,-5.32 -5.43,-9.14 -1.77,-8.78 -1.77,-5.14" fill="white"/>
<polygon points="-63.62,-14.77 -68.77,-22.55 -57.43,-20.90 -53.46,-13.79" fill="white"/>
<polygon points="-53.46,-13.79 -57.43,-20.90 -47.71,-19.47 -44.65,-12.94" fill="black"/>
<polygon points="-44.65,-12.94 -47.71,-19.47 -39.29,-18.24 -36.95,-12.19" fill="white"/>
<polygon points="-36.95,-12.19 -39.29,-18.24 -31.92,-17.16 -30.15,-11.53" fill="black"/>
<polygon points="-30.15,-11.53 -31.92,-17.16 -25.42,-16.21 -24.11,-10.95" fill="white"/>
<polygon points="-24.11,-10.95 -25.42,-16.21 -19.64,-15.37 -18.70,-10.42" fill="black"/>
<polygon points="-18.70,-10.42 -19.64,-15.37 -14.47,-14.61 -13.83,-9.95" fill="white"/>
<polygon points="-13.83,-9.95 -14.47,-14.61 -9.81,-13.93 -9.43,-9.52" fill="black"/>
<polygon points="-9.43,-9.52 -9.81,-13.93 -5.60,-13.31 -5.43,-9.14" fill="white"/>
<polygon points="-5.43,-9.14 -5.60,-13.31 -1.77,-12.75 -1.77,-8.78" fill="black"/>
<polygon points="-68.77,-22.55 -74.86,-31.75 -62.07,-29.19 -57.43,-20.90" fill="black"/>
<polygon points="-57.43,-20.90 -62.07,-29.19 -51.25,-27.02 -47.71,-19.47" fill="white"/>
<polygon points="-47.71,-19.47 -51.25,-27.02 -41.97,-25.16 -39.29,-18.24" fill="black"/>
<polygon points="-39.29,-18.24 -41.97,-25.16 -33.93,-23.55 -31.92,-17.16" fill="white"/>
<polygon points="-31.92,-17.16 -33.93,-23.55 -26.90,-22.14 -25.42,-16.21" fill="black"/>
<polygon points="-25.42,-16.21 -26.90,-22.14 -20.69,-20.90 -19.64,-15.37" fill="white"/>
<polygon points="-19.64,-15.37 -20.69,-20.90 -15.17,-19.79 -14.47,-14.61" fill="black"/>
<polygon points="-14.47,-14.61 -15.17,-19.79 -10.24,-18.80 -9.81,-13.93" fill="white"/>
<polygon points="-9.81,-13.93 -10.24,-18.80 -5.79,-17.91 -5.60,-13.31" fill="black"/>
<polygon points="-5.60,-13.31 -5.79,-17.91 -1.77,-17.11 -1.77,-12.75" fill="white"/>
<polygon points="-74.86,-31.75 -82.17,-42.79 -67.55,-38.99 -62.07,-29.19" fill="white"/>
<polygon points="-62.07,-29.19 -67.55,-38.99 -55.37,-35.82 -51.25,-27.02" fill="black"/>
<polygon points="-51.25,-27.02 -55.37,-35.82 -45.06,-33.14 -41.97,-25.16" fill="white"/>
<polygon points="-41.97,-25.16 -45.06,-33.14 -36.23,-30.85 -33.93,-23.55" fill="black"/>
<polygon points="-33.93,-23.55 -36.23,-30.85 -28.57,-28.86 -26.90,-22.14" fill="white"/>
<polygon points="-26.90,-22.14 -28.57,-28.86 -21.87,-27.11 -20.69,-20.90" fill="black"/>
<polygon points="-20.69,-20.90 -21.87,-27.11 -15.96,-25.58 -15.17,-19.79" fill="white"/>
<polygon points="-15.17,-19.79 -15.96,-25.58 -10.71,-24.21 -10.24,-18.80" fill="black"/>
<polygon points="-10.24,-18.80 -10.71,-24.21 -6.00,-22.99 -5.79,-17.91" fill="white"/>
<polygon points="-5.79,-17.91 -6.00,-22.99 -1.77,-21.89 -1.77,-17.11" fill="black"/>
<polygon points="-3.81,-1.00 -3.86,-2.64 -1.77,-1.79" fill="lawngreen"/>
<polyline points="-1.77,11.61 -41.97,17.91 -82.17,-42.79 -1.77,-21.89 -1.77,11.61" stroke="black" stroke-width="1px" stroke-opacity="0.3" fill="none"/></svg>