<?xml version="1.0" encoding="UTF-8" standalone="no"?>
<svg version="1.1"
     width="81.52mm" 
     height="62.76mm"
     viewBox="-84.54 -15.69 81.52 62.76"
     preserveAspectRatio="none"
     xmlns="http://www.w3.org/2000/svg">

<polygon points="-3.02,-10.46 -43.78,-15.69 -84.54,47.07 -3.02,23.53" fill="white"/>
<polygon points="-34.08,-11.21 -35.63,-7.84 -41.64,-8.26 -39.71,-11.77" fill="blue"/>
<polygon points="-5.93,-8.40 -6.04,-5.81 -9.29,-6.03 -9.06,-8.72" fill="blue"/>
<polygon points="-49.60,22.41 -53.19,30.17 -64.16,32.69 -59.46,24.14" fill="blue"/>
<polygon points="-6.90,14.94 -7.10,19.61 -11.60,20.64 -11.17,15.69" fill="blue"/>
<polygon points="-17.84,0.00 -27.48,0.00 -30.19,8.72 -19.32,7.84" fill="blue"/>
<polygon points="-5.09,2.39 -5.13,4.06 -3.02,3.14" fill="lawngreen"/>
<polyline points="-3.02,-10.46 -43.78,-15.69 -84.54,47.07 -3.02,23.53 -3.02,-10.46" stroke="black" stroke-width="1px" stroke-opacity="0.3" fill="none"/></svg>