<?xml version="1.0" encoding="UTF-8" standalone="no"?>
<svg version="1.1"
     width="81.52mm" 
     height="62.76mm"
     viewBox="-84.54 -47.07 81.52 62.76"
     preserveAspectRatio="none"
     xmlns="http://www.w3.org/2000/svg">

<polygon points="-3.02,10.46 -43.78,15.69 -84.54,-47.07 -3.02,-23.53" fill="white"/>
<polygon points="-43.78,15.69 -45.93,12.39 -39.71,11.77 -37.96,14.94" fill="black"/>
<polygon points="-37.96,14.94 -39.71,11.77 -34.08,11.21 -32.66,14.26" fill="white"/>
<polygon points="-32.66,14.26 -34.08,11.21 -28.96,10.70 -27.83,13.64" fill="black"/>
<polygon points="-27.83,13.64 -28.96,10.70 -24.29,10.23 -23.40,13.07" fill="white"/>
<polygon points="-23.40,13.07 -24.29,10.23 -20.00,9.81 -19.32,12.55" fill="black"/>
<polygon points="-19.32,12.55 -20.00,9.81 -16.06,9.41 -15.56,12.07" fill="white"/>
<polygon points="-15.56,12.07 -16.06,9.41 -12.43,9.05 -12.08,11.62" fill="black"/>
<polygon points="-12.08,11.62 -12.43,9.05 -9.06,8.72 -8.84,11.21" fill="white"/>
<polygon points="-8.84,11.21 -9.06,8.72 -5.93,8.40 -5.83,10.82" fill="black"/>
<polygon points="-5.83,10.82 -5.93,8.40 -3.02,8.12 -3.02,10.46" fill="white"/>
<polygon points="-45.93,12.39 -48.31,8.72 -41.64,8.26 -39.71,11.77" fill="white"/>
<polygon points="-39.71,11.77 -41.64,8.26 -35.63,7.84 -34.08,11.21" fill="black"/>
<polygon points="-34.08,11.21 -35.63,7.84 -30.19,7.47 -28.96,10.70" fill="white"/>
<polygon points="-28.96,10.70 -30.19,7.47 -25.25,7.13 -24.29,10.23" fill="black"/>
<polygon points="-24.29,10.23 -25.25,7.13 -20.74,6.82 -20.00,9.81" fill="white"/>
<polygon points="-20.00,9.81 -20.74,6.82 -16.61,6.54 -16.06,9.41" fill="black"/>
<polygon points="-16.06,9.41 -16.61,6.54 -12.80,6.28 -12.43,9.05" fill="white"/>
<polygon points="-12.43,9.05 -12.80,6.28 -9.29,6.03 -9.06,8.72" fill="black"/>
<polygon points="-9.06,8.72 -9.29,6.03 -6.04,5.81 -5.93,8.40" fill="white"/>
<polygon points="-5.93,8.40 -6.04,5.81 -3.02,5.60 -3.02,8.12" fill="black"/>
<polygon points="-48.31,8.72 -50.97,4.61 -43.78,4.36 -41.64,8.26" fill="black"/>
<polygon points="-41.64,8.26 -43.78,4.36 -37.35,4.13 -35.63,7.84" fill="white"/>
<polygon points="-35.63,7.84 -37.35,4.13 -31.55,3.92 -30.19,7.47" fill="black"/>
<polygon points="-30.19,7.47 -31.55,3.92 -26.31,3.74 -25.25,7.13" fill="white"/>
<polygon points="-25.25,7.13 -26.31,3.74 -21.55,3.57 -20.74,6.82" fill="black"/>
<polygon points="-20.74,6.82 -21.55,3.57 -17.20,3.41 -16.61,6.54" fill="white"/>
<polygon points="-16.61,6.54 -17.20,3.41 -13.21,3.27 -12.80,6.28" fill="black"/>
<polygon points="-12.80,6.28 -13.21,3.27 -9.54,3.14 -9.29,6.03" fill="white"/>
<polygon points="-9.29,6.03 -9.54,3.14 -6.15,3.02 -6.04,5.81" fill="black"/>
<polygon points="-6.04,5.81 -6.15,3.02 -3.02,2.91 -3.02,5.60" fill="white"/>
<polygon points="-50.97,4.61 -53.97,-0.00 -46.18,-0.00 -43.78,4.36" fill="white"/>
<polygon points="-43.78,4.36 -46.18,-0.00 -39.25,0.00 -37.35,4.13" fill="black"/>
<polygon points="-37.35,4.13 -39.25,0.00 -33.05,0.00 -31.55,3.92" fill="white"/>
<polygon points="-31.55,3.92 -33.05,0.00 -27.48,-0.00 -26.31,3.74" fill="black"/>
<polygon points="-26.31,3.74 -27.48,-0.00 -22.43,-0.00 -21.55,3.57" fill="white"/>
<polygon points="-21.55,3.57 -22.43,-0.00 -17.84,0.00 -17.20,3.41" fill="black"/>
<polygon points="-17.20,3.41 -17.84,0.00 -13.65,-0.00 -13.21,3.27" fill="white"/>
<polygon points="-13.21,3.27 -13.65,-0.00 -9.81,-0.00 -9.54,3.14" fill="black"/>
<polygon points="-9.54,3.14 -9.81,-0.00 -6.28,0.00 -6.15,3.02" fill="white"/>
<polygon points="-6.15,3.02 -6.28,0.00 -3.02,-0.00 -3.02,2.91" fill="black"/>
<polygon points="-53.97,-0.00 -57.37,-5.23 -48.88,-4.90 -46.18,-0.00" fill="black"/>
<polygon points="-46.18,-0.00 -48.88,-4.90 -41.38,-4.61 -39.25,0.00" fill="white"/>
<polygon points="-39.25,0.00 -41.38,-4.61 -34.72,-4.36 -33.05,0.00" fill="black"/>
<polygon points="-33.05,0.00 -34.72,-4.36 -28.76,-4.13 -27.48,-0.00" fill="white"/>
<polygon points="-27.48,-0.00 -28.76,-4.13 -23.40,-3.92 -22.43,-0.00" fill="black"/>
<polygon points="-22.43,-0.00 -23.40,-3.92 -18.55,-3.74 -17.84,0.00" fill="white"/>
<polygon points="-17.84,0.00 -18.55,-3.74 -14.14,-3.57 -13.65,-0.00" fill="black"/>
<polygon points="-13.65,-0.00 -14.14,-3.57 -10.11,-3.41 -9.81,-0.00" fill="white"/>
<polygon points="-9.81,-0.00 -10.11,-3.41 -6.42,-3.27 -6.28,0.00" fill="black"/>
<polygon points="-6.28,0.00 -6.42,-3.27 -3.02,-3.14 -3.02,-0.00" fill="white"/>
<polygon points="-57.37,-5.23 -61.25,-11.21 -51.93,-10.46 -48.88,-4.90" fill="white"/>
<polygon points="-48.88,-4.90 -51.93,-10.46 -43.78,-9.81 -41.38,-4.61" fill="black"/>
<polygon points="-41.38,-4.61 -43.78,-9.81 -36.59,-9.23 -34.72,-4.36" fill="white"/>
<polygon points="-34.72,-4.36 -36.59,-9.23 -30.19,-8.72 -28.76,-4.13" fill="black"/>
<polygon points="-28.76,-4.13 -30.19,-8.72 -24.47,-8.26 -23.40,-3.92" fill="white"/>
<polygon points="-23.40,-3.92 -24.47,-8.26 -19.32,-7.84 -18.55,-3.74" fill="black"/>
<polygon points="-18.55,-3.74 -19.32,-7.84 -14.67,-7.47 -14.14,-3.57" fill="white"/>
<polygon points="-14.14,-3.57 -14.67,-7.47 -10.43,-7.13 -10.11,-3.41" fill="black"/>
<polygon points="-10.11,-3.41 -10.43,-7.13 -6.56,-6.82 -6.42,-3.27" fill="white"/>
<polygon points="-6.42,-3.27 -6.56,-6.82 -3.02,-6.54 -3.02,-3.14" fill="black"/>
<polygon points="-61.25,-11.21 -65.73,-18.10 -55.43,-16.81 -51.93,-10.46" fill="black"/>
<polygon points="-51.93,-10.46 -55.43,-16.81 -46.50,-15.69 -43.78,-9.81" fill="white"/>
<polygon points="-43.78,-9.81 -46.50,-15.69 -38.69,-14.71 -36.59,-9.23" fill="black"/>
<polygon points="-36.59,-9.23 -38.69,-14.71 -31.79,-13.84 -30.19,-8.72" fill="white"/>
<polygon points="-30.19,-8.72 -31.79,-13.84 -25.66,-13.07 -24.47,-8.26" fill="black"/>
<polygon points="-24.47,-8.26 -25.66,-13.07 -20.18,-12.39 -19.32,-7.84" fill="white"/>
<polygon points="-19.32,-7.84 -20.18,-12.39 -15.25,-11.77 -14.67,-7.47" fill="black"/>
<polygon points="-14.67,-7.47 -15.25,-11.77 -10.78,-11.21 -10.43,-7.13" fill="white"/>
<polygon points="-10.43,-7.13 -10.78,-11.21 -6.73,-10.70 -6.56,-6.82" fill="black"/>
<polygon points="-6.56,-6.82 -6.73,-10.70 -3.02,-10.23 -3.02,-6.54" fill="white"/>
<polygon points="-65.73,-18.10 -70.96,-26.15 -59.46,-24.14 -55.43,-16.81" fill="white"/>
<polygon points="-55.43,-16.81 -59.46,-24.14 -49.60,-22.41 -46.50,-15.69" fill="black"/>
<polygon points="-46.50,-15.69 -49.60,-22.41 -41.06,-20.92 -38.69,-14.71" fill="white"/>
<polygon points="-38.69,-14.71 -41.06,-20.92 -33.59,-19.61 -31.79,-13.84" fill="black"/>
<polygon points="-31.79,-13.84 -33.59,-19.61 -27.00,-18.46 -25.66,-13.07" fill="white"/>
<polygon points="-25.66,-13.07 -27.00,-18.46 -21.14,-17.43 -20.18,-12.39" fill="black"/>
<polygon points="-20.18,-12.39 -21.14,-17.43 -15.89,-16.52 -15.25,-11.77" fill="white"/>
<polygon points="-15.25,-11.77 -15.89,-16.52 -11.17,-15.69 -10.78,-11.21" fill="black"/>
<polygon points="-10.78,-11.21 -11.17,-15.69 -6.90,-14.94 -6.73,-10.70" fill="white"/>
<polygon points="-6.73,-10.70 -6.90,-14.94 -3.02,-14.26 -3.02,-10.23" fill="black"/>
<polygon points="-70.96,-26.15 -77.13,-35.66 -64.16,-32.69 -59.46,-24.14" fill="black"/>
<polygon points="-59.46,-24.14 -64.16,-32.69 -53.19,-30.17 -49.60,-22.41" fill="white"/>
<polygon points="-49.60,-22.41 -53.19,-30.17 -43.78,-28.02 -41.06,-20.92" fill="black"/>
<polygon points="-41.06,-20.92 -43.78,-28.02 -35.63,-26.15 -33.59,-19.61" fill="white"/>
<polygon points="-33.59,-19.61 -35.63,-26.15 -28.50,-24.51 -27.00,-18.46" fill="black"/>
<polygon points="-27.00,-18.46 -28.50,-24.51 -22.20,-23.07 -21.14,-17.43" fill="white"/>
<polygon points="-21.14,-17.43 -22.20,-23.07 -16.61,-21.79 -15.89,-16.52" fill="black"/>
<polygon points="-15.89,-16.52 -16.61,-21.79 -11.60,-20.64 -11.17,-15.69" fill="white"/>
<polygon points="-11.17,-15.69 -11.60,-20.64 -7.10,-19.61 -6.90,-14.94" fill="black"/>
<polygon points="-6.90,-14.94 -7.10,-19.61 -3.02,-18.68 -3.02,-14.26" fill="white"/>
<polygon points="-77.13,-35.66 -84.54,-47.07 -69.72,-42.79 -64.16,-32.69" fill="white"/>
<polygon points="-64.16,-32.69 -69.72,-42.79 -57.37,-39.22 -53.19,-30.17" fill="black"/>
<polygon points="-53.19,-30.17 -57.37,-39.22 -46.92,-36.21 -43.78,-28.02" fill="white"/>
<polygon points="-43.78,-28.02 -46.92,-36.21 -37.96,-33.62 -35.63,-26.15" fill="black"/>
<polygon points="-35.63,-26.15 -37.96,-33.62 -30.19,-31.38 -28.50,-24.51" fill="white"/>
<polygon points="-28.50,-24.51 -30.19,-31.38 -23.40,-29.42 -22.20,-23.07" fill="black"/>
<polygon points="-22.20,-23.07 -23.40,-29.42 -17.41,-27.69 -16.61,-21.79" fill="white"/>
<polygon points="-16.61,-21.79 -17.41,-27.69 -12.08,-26.15 -11.60,-20.64" fill="black"/>
<polygon points="-11.60,-20.64 -12.08,-26.15 -7.31,-24.77 -7.10,-19.61" fill="white"/>
<polygon points="-7.10,-19.61 -7.31,-24.77 -3.02,-23.53 -3.02,-18.68" fill="black"/>
<polygon points="-5.09,-2.39 -5.13,-4.06 -3.02,-3.14" fill="lawngreen"/>
<polyline points="-3.02,10.46 -43.78,15.69 -84.54,-47.07 -3.02,-23.53 -3.02,10.46" stroke="black" stroke-width="1px" stroke-opacity="0.3" fill="none"/></svg>