<?xml version="1.0" encoding="UTF-8" standalone="no"?>
<svg version="1.1"
     width="123.48mm" 
     height="87.31mm"
     viewBox="-126.91 -72.76 123.48 87.31"
     preserveAspectRatio="none"
     xmlns="http://www.w3.org/2000/svg">

<polygon points="-3.43,8.73 -44.59,14.55 -126.91,-72.76 -3.43,-24.25" fill="white"/>
<polygon points="-44.59,14.55 -47.53,11.43 -40.47,10.67 -38.16,13.64" fill="black"/>
<polygon points="-38.16,13.64 -40.47,10.67 -34.30,10.00 -32.48,12.84" fill="white"/>
<polygon points="-32.48,12.84 -34.30,10.00 -28.85,9.42 -27.44,12.13" fill="black"/>
<polygon points="-27.44,12.13 -28.85,9.42 -24.01,8.89 -22.93,11.49" fill="white"/>
<polygon points="-22.93,11.49 -24.01,8.89 -19.68,8.42 -18.86,10.91" fill="black"/>
<polygon points="-18.86,10.91 -19.68,8.42 -15.78,8.00 -15.19,10.39" fill="white"/>
<polygon points="-15.19,10.39 -15.78,8.00 -12.25,7.62 -11.85,9.92" fill="black"/>
<polygon points="-11.85,9.92 -12.25,7.62 -9.04,7.28 -8.80,9.49" fill="white"/>
<polygon points="-8.80,9.49 -9.04,7.28 -6.11,6.96 -6.00,9.10" fill="black"/>
<polygon points="-6.00,9.10 -6.11,6.96 -3.43,6.67 -3.43,8.73" fill="white"/>
<polygon points="-47.53,11.43 -50.92,7.84 -43.12,7.28 -40.47,10.67" fill="white"/>
<polygon points="-40.47,10.67 -43.12,7.28 -36.36,6.79 -34.30,10.00" fill="black"/>
<polygon points="-34.30,10.00 -36.36,6.79 -30.44,6.37 -28.85,9.42" fill="white"/>
<polygon points="-28.85,9.42 -30.44,6.37 -25.22,5.99 -24.01,8.89" fill="black"/>
<polygon points="-24.01,8.89 -25.22,5.99 -20.58,5.66 -19.68,8.42" fill="white"/>
<polygon points="-19.68,8.42 -20.58,5.66 -16.43,5.36 -15.78,8.00" fill="black"/>
<polygon points="-15.78,8.00 -16.43,5.36 -12.69,5.09 -12.25,7.62" fill="white"/>
<polygon points="-12.25,7.62 -12.69,5.09 -9.31,4.85 -9.04,7.28" fill="black"/>
<polygon points="-9.04,7.28 -9.31,4.85 -6.24,4.63 -6.11,6.96" fill="white"/>
<polygon points="-6.11,6.96 -6.24,4.63 -3.43,4.43 -3.43,6.67" fill="black"/>
<polygon points="-50.92,7.84 -54.88,3.64 -46.17,3.36 -43.12,7.28" fill="black"/>
<polygon points="-43.12,7.28 -46.17,3.36 -38.71,3.12 -36.36,6.79" fill="white"/>
<polygon points="-36.36,6.79 -38.71,3.12 -32.24,2.91 -30.44,6.37" fill="black"/>
<polygon points="-30.44,6.37 -32.24,2.91 -26.58,2.73 -25.22,5.99" fill="white"/>
<polygon points="-25.22,5.99 -26.58,2.73 -21.59,2.57 -20.58,5.66" fill="black"/>
<polygon points="-20.58,5.66 -21.59,2.57 -17.15,2.43 -16.43,5.36" fill="white"/>
<polygon points="-16.43,5.36 -17.15,2.43 -13.18,2.30 -12.69,5.09" fill="black"/>
<polygon points="-12.69,5.09 -13.18,2.30 -9.60,2.18 -9.31,4.85" fill="white"/>
<polygon points="-9.31,4.85 -9.60,2.18 -6.37,2.08 -6.24,4.63" fill="black"/>
<polygon points="-6.24,4.63 -6.37,2.08 -3.43,1.98 -3.43,4.43" fill="white"/>
<polygon points="-54.88,3.64 -59.56,-1.32 -49.73,-1.21 -46.17,3.36" fill="white"/>
<polygon points="-46.17,3.36 -49.73,-1.21 -41.42,-1.12 -38.71,3.12" fill="black"/>
<polygon points="-38.71,3.12 -41.42,-1.12 -34.30,-1.04 -32.24,2.91" fill="white"/>
<polygon points="-32.24,2.91 -34.30,-1.04 -28.13,-0.97 -26.58,2.73" fill="black"/>
<polygon points="-26.58,2.73 -28.13,-0.97 -22.72,-0.91 -21.59,2.57" fill="white"/>
<polygon points="-21.59,2.57 -22.72,-0.91 -17.96,-0.86 -17.15,2.43" fill="black"/>
<polygon points="-17.15,2.43 -17.96,-0.86 -13.72,-0.81 -13.18,2.30" fill="white"/>
<polygon points="-13.18,2.30 -13.72,-0.81 -9.93,-0.77 -9.60,2.18" fill="black"/>
<polygon points="-9.60,2.18 -9.93,-0.77 -6.52,-0.73 -6.37,2.08" fill="white"/>
<polygon points="-6.37,2.08 -6.52,-0.73 -3.43,-0.69 -3.43,1.98" fill="black"/>
<polygon points="-59.56,-1.32 -65.17,-7.28 -53.94,-6.61 -49.73,-1.21" fill="black"/>
<polygon points="-49.73,-1.21 -53.94,-6.61 -44.59,-6.06 -41.42,-1.12" fill="white"/>
<polygon points="-41.42,-1.12 -44.59,-6.06 -36.67,-5.60 -34.30,-1.04" fill="black"/>
<polygon points="-34.30,-1.04 -36.67,-5.60 -29.89,-5.20 -28.13,-0.97" fill="white"/>
<polygon points="-28.13,-0.97 -29.89,-5.20 -24.01,-4.85 -22.72,-0.91" fill="black"/>
<polygon points="-22.72,-0.91 -24.01,-4.85 -18.86,-4.55 -17.96,-0.86" fill="white"/>
<polygon points="-17.96,-0.86 -18.86,-4.55 -14.33,-4.28 -13.72,-0.81" fill="black"/>
<polygon points="-13.72,-0.81 -14.33,-4.28 -10.29,-4.04 -9.93,-0.77" fill="white"/>
<polygon points="-9.93,-0.77 -10.29,-4.04 -6.68,-3.83 -6.52,-0.73" fill="black"/>
<polygon points="-6.52,-0.73 -6.68,-3.83 -3.43,-3.64 -3.43,-0.69" fill="white"/>
<polygon points="-65.17,-7.28 -72.03,-14.55 -59.00,-13.10 -53.94,-6.61" fill="white"/>
<polygon points="-53.94,-6.61 -59.00,-13.10 -48.33,-11.91 -44.59,-6.06" fill="black"/>
<polygon points="-44.59,-6.06 -48.33,-11.91 -39.44,-10.91 -36.67,-5.60" fill="white"/>
<polygon points="-36.67,-5.60 -39.44,-10.91 -31.93,-10.07 -29.89,-5.20" fill="black"/>
<polygon points="-29.89,-5.20 -31.93,-10.07 -25.48,-9.35 -24.01,-4.85" fill="white"/>
<polygon points="-24.01,-4.85 -25.48,-9.35 -19.89,-8.73 -18.86,-4.55" fill="black"/>
<polygon points="-18.86,-4.55 -19.89,-8.73 -15.01,-8.19 -14.33,-4.28" fill="white"/>
<polygon points="-14.33,-4.28 -15.01,-8.19 -10.69,-7.70 -10.29,-4.04" fill="black"/>
<polygon points="-10.29,-4.04 -10.69,-7.70 -6.86,-7.28 -6.68,-3.83" fill="white"/>
<polygon points="-6.68,-3.83 -6.86,-7.28 -3.43,-6.89 -3.43,-3.64" fill="black"/>
<polygon points="-72.03,-14.55 -80.60,-23.65 -65.17,-21.02 -59.00,-13.10" fill="black"/>
<polygon points="-59.00,-13.10 -65.17,-21.02 -52.82,-18.92 -48.33,-11.91" fill="white"/>
<polygon points="-48.33,-11.91 -52.82,-18.92 -42.72,-17.20 -39.44,-10.91" fill="black"/>
<polygon points="-39.44,-10.91 -42.72,-17.20 -34.30,-15.76 -31.93,-10.07" fill="white"/>
<polygon points="-31.93,-10.07 -34.30,-15.76 -27.18,-14.55 -25.48,-9.35" fill="black"/>
<polygon points="-25.48,-9.35 -27.18,-14.55 -21.07,-13.51 -19.89,-8.73" fill="white"/>
<polygon points="-19.89,-8.73 -21.07,-13.51 -15.78,-12.61 -15.01,-8.19" fill="black"/>
<polygon points="-15.01,-8.19 -15.78,-12.61 -11.15,-11.82 -10.69,-7.70" fill="white"/>
<polygon points="-10.69,-7.70 -11.15,-11.82 -7.06,-11.13 -6.86,-7.28" fill="black"/>
<polygon points="-6.86,-7.28 -7.06,-11.13 -3.43,-10.51 -3.43,-6.89" fill="white"/>
<polygon points="-80.60,-23.65 -91.63,-35.34 -72.89,-30.92 -65.17,-21.02" fill="white"/>
<polygon points="-65.17,-21.02 -72.89,-30.92 -58.31,-27.49 -52.82,-18.92" fill="black"/>
<polygon points="-52.82,-18.92 -58.31,-27.49 -46.65,-24.74 -42.72,-17.20" fill="white"/>
<polygon points="-42.72,-17.20 -46.65,-24.74 -37.11,-22.49 -34.30,-15.76" fill="black"/>
<polygon points="-34.30,-15.76 -37.11,-22.49 -29.15,-20.62 -27.18,-14.55" fill="white"/>
<polygon points="-27.18,-14.55 -29.15,-20.62 -22.43,-19.03 -21.07,-13.51" fill="black"/>
<polygon points="-21.07,-13.51 -22.43,-19.03 -16.66,-17.67 -15.78,-12.61" fill="white"/>
<polygon points="-15.78,-12.61 -16.66,-17.67 -11.66,-16.49 -11.15,-11.82" fill="black"/>
<polygon points="-11.15,-11.82 -11.66,-16.49 -7.29,-15.46 -7.06,-11.13" fill="white"/>
<polygon points="-7.06,-11.13 -7.29,-15.46 -3.43,-14.55 -3.43,-10.51" fill="black"/>
<polygon points="-91.63,-35.34 -106.33,-50.93 -82.81,-43.66 -72.89,-30.92" fill="black"/>
<polygon points="-72.89,-30.92 -82.81,-43.66 -65.17,-38.20 -58.31,-27.49" fill="white"/>
<polygon points="-58.31,-27.49 -65.17,-38.20 -51.45,-33.95 -46.65,-24.74" fill="black"/>
<polygon points="-46.65,-24.74 -51.45,-33.95 -40.47,-30.56 -37.11,-22.49" fill="white"/>
<polygon points="-37.11,-22.49 -40.47,-30.56 -31.49,-27.78 -29.15,-20.62" fill="black"/>
<polygon points="-29.15,-20.62 -31.49,-27.78 -24.01,-25.47 -22.43,-19.03" fill="white"/>
<polygon points="-22.43,-19.03 -24.01,-25.47 -17.68,-23.51 -16.66,-17.67" fill="black"/>
<polygon points="-16.66,-17.67 -17.68,-23.51 -12.25,-21.83 -11.66,-16.49" fill="white"/>
<polygon points="-11.66,-16.49 -12.25,-21.83 -7.55,-20.37 -7.29,-15.46" fill="black"/>
<polygon points="-7.29,-15.46 -7.55,-20.37 -3.43,-19.10 -3.43,-14.55" fill="white"/>
<polygon points="-106.33,-50.93 -126.91,-72.76 -96.04,-60.63 -82.81,-43.66" fill="white"/>
<polygon points="-82.81,-43.66 -96.04,-60.63 -73.99,-51.97 -65.17,-38.20" fill="black"/>
<polygon points="-65.17,-38.20 -73.99,-51.97 -57.45,-45.48 -51.45,-33.95" fill="white"/>
<polygon points="-51.45,-33.95 -57.45,-45.48 -44.59,-40.42 -40.47,-30.56" fill="black"/>
<polygon points="-40.47,-30.56 -44.59,-40.42 -34.30,-36.38 -31.49,-27.78" fill="white"/>
<polygon points="-31.49,-27.78 -34.30,-36.38 -25.88,-33.07 -24.01,-25.47" fill="black"/>
<polygon points="-24.01,-25.47 -25.88,-33.07 -18.86,-30.32 -17.68,-23.51" fill="white"/>
<polygon points="-17.68,-23.51 -18.86,-30.32 -12.93,-27.98 -12.25,-21.83" fill="black"/>
<polygon points="-12.25,-21.83 -12.93,-27.98 -7.84,-25.99 -7.55,-20.37" fill="white"/>
<polygon points="-7.55,-20.37 -7.84,-25.99 -3.43,-24.25 -3.43,-19.10" fill="black"/>
<polygon points="-5.40,-2.97 -5.45,-4.57 -3.43,-3.64" fill="lawngreen"/>
<polyline points="-3.43,8.73 -44.59,14.55 -126.91,-72.76 -3.43,-24.25 -3.43,8.73" stroke="black" stroke-width="1px" stroke-opacity="0.3" fill="none"/></svg>