<?xml version="1.0" encoding="UTF-8" standalone="no"?>
<svg version="1.1"
     width="123.48mm" 
     height="87.31mm"
     viewBox="-126.91 -14.55 123.48 87.31"
     preserveAspectRatio="none"
     xmlns="http://www.w3.org/2000/svg">

<polygon points="-3.43,-8.73 -44.59,-14.55 -126.91,72.76 -3.43,24.25" fill="white"/>
<polygon points="-34.30,-10.00 -36.36,-6.79 -43.12,-7.28 -40.47,-10.67" fill="blue"/>
<polygon points="-6.11,-6.96 -6.24,-4.63 -9.31,-4.85 -9.04,-7.28" fill="blue"/>
<polygon points="-58.31,27.49 -65.17,38.20 -82.81,43.66 -72.89,30.92" fill="blue"/>
<polygon points="-7.29,15.46 -7.55,20.37 -12.25,21.83 -11.66,16.49" fill="blue"/>
<polygon points="-17.96,0.86 -28.13,0.97 -31.93,10.07 -19.89,8.73" fill="blue"/>
<polygon points="-5.40,2.97 -5.45,4.57 -3.43,3.64" fill="lawngreen"/>
<polyline points="-3.43,-8.73 -44.59,-14.55 -126.91,72.76 -3.43,24.25 -3.43,-8.73" stroke="black" stroke-width="1px" stroke-opacity="0.3" fill="none"/></svg>