<svg version="1.1"     
     baseProfile="full"
     width="200.00mm"  
     height="200.00mm" 
     viewBox="-200.00 -100.00 200.00 200.00"
     preserveAspectRatio="none"
     xmlns="http://www.w3.org/2000/svg"
     xmlns:xlink="http://www.w3.org/1999/xlink"
     xmlns:ev="http://www.w3.org/2001/xml-events">
<polygon points="0.00,100.00 -200.00,100.00 -200.00,-100.00 0.00,-100.00" fill="white" stroke="black" stroke-width="2"/>
<polygon points="-200.00,100.00 -200.00,80.00 -180.00,80.00 -180.00,100.00" fill="black"/>
<polygon points="-180.00,100.00 -180.00,80.00 -160.00,80.00 -160.00,100.00" fill="white"/>
<polygon points="-160.00,100.00 -160.00,80.00 -140.00,80.00 -140.00,100.00" fill="black"/>
<polygon points="-140.00,100.00 -140.00,80.00 -120.00,80.00 -120.00,100.00" fill="white"/>
<polygon points="-120.00,100.00 -120.00,80.00 -100.00,80.00 -100.00,100.00" fill="black"/>
<polygon points="-100.00,100.00 -100.00,80.00 -80.00,80.00 -80.00,100.00" fill="white"/>
<polygon points="-80.00,100.00 -80.00,80.00 -60.00,80.00 -60.00,100.00" fill="black"/>
<polygon points="-60.00,100.00 -60.00,80.00 -40.00,80.00 -40.00,100.00" fill="white"/>
<polygon points="-40.00,100.00 -40.00,80.00 -20.00,80.00 -20.00,100.00" fill="black"/>
<polygon points="-20.00,100.00 -20.00,80.00 0.00,80.00 0.00,100.00" fill="white"/>
<polygon points="-200.00,80.00 -200.00,60.00 -180.00,60.00 -180.00,80.00" fill="white"/>
<polygon points="-180.00,80.00 -180.00,60.00 -160.00,60.00 -160.00,80.00" fill="black"/>
<polygon points="-160.00,80.00 -160.00,60.00 -140.00,60.00 -140.00,80.00" fill="white"/>
<polygon points="-140.00,80.00 -140.00,60.00 -120.00,60.00 -120.00,80.00" fill="black"/>
<polygon points="-120.00,80.00 -120.00,60.00 -100.00,60.00 -100.00,80.00" fill="white"/>
<polygon points="-100.00,80.00 -100.00,60.00 -80.00,60.00 -80.00,80.00" fill="black"/>
<polygon points="-80.00,80.00 -80.00,60.00 -60.00,60.00 -60.00,80.00" fill="white"/>
<polygon points="-60.00,80.00 -60.00,60.00 -40.00,60.00 -40.00,80.00" fill="black"/>
<polygon points="-40.00,80.00 -40.00,60.00 -20.00,60.00 -20.00,80.00" fill="white"/>
<polygon points="-20.00,80.00 -20.00,60.00 0.00,60.00 0.00,80.00" fill="black"/>
<polygon points="-200.00,60.00 -200.00,40.00 -180.00,40.00 -180.00,60.00" fill="black"/>
<polygon points="-180.00,60.00 -180.00,40.00 -160.00,40.00 -160.00,60.00" fill="white"/>
<polygon points="-160.00,60.00 -160.00,40.00 -140.00,40.00 -140.00,60.00" fill="black"/>
<polygon points="-140.00,60.00 -140.00,40.00 -120.00,40.00 -120.00,60.00" fill="white"/>
<polygon points="-120.00,60.00 -120.00,40.00 -100.00,40.00 -100.00,60.00" fill="black"/>
<polygon points="-100.00,60.00 -100.00,40.00 -80.00,40.00 -80.00,60.00" fill="white"/>
<polygon points="-80.00,60.00 -80.00,40.00 -60.00,40.00 -60.00,60.00" fill="black"/>
<polygon points="-60.00,60.00 -60.00,40.00 -40.00,40.00 -40.00,60.00" fill="white"/>
<polygon points="-40.00,60.00 -40.00,40.00 -20.00,40.00 -20.00,60.00" fill="black"/>
<polygon points="-20.00,60.00 -20.00,40.00 0.00,40.00 0.00,60.00" fill="white"/>
<polygon points="-200.00,40.00 -200.00,20.00 -180.00,20.00 -180.00,40.00" fill="white"/>
<polygon points="-180.00,40.00 -180.00,20.00 -160.00,20.00 -160.00,40.00" fill="black"/>
<polygon points="-160.00,40.00 -160.00,20.00 -140.00,20.00 -140.00,40.00" fill="white"/>
<polygon points="-140.00,40.00 -140.00,20.00 -120.00,20.00 -120.00,40.00" fill="black"/>
<polygon points="-120.00,40.00 -120.00,20.00 -100.00,20.00 -100.00,40.00" fill="white"/>
<polygon points="-100.00,40.00 -100.00,20.00 -80.00,20.00 -80.00,40.00" fill="black"/>
<polygon points="-80.00,40.00 -80.00,20.00 -60.00,20.00 -60.00,40.00" fill="white"/>
<polygon points="-60.00,40.00 -60.00,20.00 -40.00,20.00 -40.00,40.00" fill="black"/>
<polygon points="-40.00,40.00 -40.00,20.00 -20.00,20.00 -20.00,40.00" fill="white"/>
<polygon points="-20.00,40.00 -20.00,20.00 0.00,20.00 0.00,40.00" fill="black"/>
<polygon points="-200.00,20.00 -200.00,0.00 -180.00,0.00 -180.00,20.00" fill="black"/>
<polygon points="-180.00,20.00 -180.00,0.00 -160.00,0.00 -160.00,20.00" fill="white"/>
<polygon points="-160.00,20.00 -160.00,0.00 -140.00,0.00 -140.00,20.00" fill="black"/>
<polygon points="-140.00,20.00 -140.00,0.00 -120.00,0.00 -120.00,20.00" fill="white"/>
<polygon points="-120.00,20.00 -120.00,0.00 -100.00,0.00 -100.00,20.00" fill="black"/>
<polygon points="-100.00,20.00 -100.00,0.00 -80.00,0.00 -80.00,20.00" fill="white"/>
<polygon points="-80.00,20.00 -80.00,0.00 -60.00,0.00 -60.00,20.00" fill="black"/>
<polygon points="-60.00,20.00 -60.00,0.00 -40.00,0.00 -40.00,20.00" fill="white"/>
<polygon points="-40.00,20.00 -40.00,0.00 -20.00,0.00 -20.00,20.00" fill="black"/>
<polygon points="-20.00,20.00 -20.00,0.00 0.00,0.00 0.00,20.00" fill="white"/>
<polygon points="-200.00,0.00 -200.00,-20.00 -180.00,-20.00 -180.00,0.00" fill="white"/>
<polygon points="-180.00,0.00 -180.00,-20.00 -160.00,-20.00 -160.00,0.00" fill="black"/>
<polygon points="-160.00,0.00 -160.00,-20.00 -140.00,-20.00 -140.00,0.00" fill="white"/>
<polygon points="-140.00,0.00 -140.00,-20.00 -120.00,-20.00 -120.00,0.00" fill="black"/>
<polygon points="-120.00,0.00 -120.00,-20.00 -100.00,-20.00 -100.00,0.00" fill="white"/>
<polygon points="-100.00,0.00 -100.00,-20.00 -80.00,-20.00 -80.00,0.00" fill="black"/>
<polygon points="-80.00,0.00 -80.00,-20.00 -60.00,-20.00 -60.00,0.00" fill="white"/>
<polygon points="-60.00,0.00 -60.00,-20.00 -40.00,-20.00 -40.00,0.00" fill="black"/>
<polygon points="-40.00,0.00 -40.00,-20.00 -20.00,-20.00 -20.00,0.00" fill="white"/>
<polygon points="-20.00,0.00 -20.00,-20.00 0.00,-20.00 0.00,0.00" fill="black"/>
<polygon points="-200.00,-20.00 -200.00,-40.00 -180.00,-40.00 -180.00,-20.00" fill="black"/>
<polygon points="-180.00,-20.00 -180.00,-40.00 -160.00,-40.00 -160.00,-20.00" fill="white"/>
<polygon points="-160.00,-20.00 -160.00,-40.00 -140.00,-40.00 -140.00,-20.00" fill="black"/>
<polygon points="-140.00,-20.00 -140.00,-40.00 -120.00,-40.00 -120.00,-20.00" fill="white"/>
<polygon points="-120.00,-20.00 -120.00,-40.00 -100.00,-40.00 -100.00,-20.00" fill="black"/>
<polygon points="-100.00,-20.00 -100.00,-40.00 -80.00,-40.00 -80.00,-20.00" fill="white"/>
<polygon points="-80.00,-20.00 -80.00,-40.00 -60.00,-40.00 -60.00,-20.00" fill="black"/>
<polygon points="-60.00,-20.00 -60.00,-40.00 -40.00,-40.00 -40.00,-20.00" fill="white"/>
<polygon points="-40.00,-20.00 -40.00,-40.00 -20.00,-40.00 -20.00,-20.00" fill="black"/>
<polygon points="-20.00,-20.00 -20.00,-40.00 0.00,-40.00 0.00,-20.00" fill="white"/>
<polygon points="-200.00,-40.00 -200.00,-60.00 -180.00,-60.00 -180.00,-40.00" fill="white"/>
<polygon points="-180.00,-40.00 -180.00,-60.00 -160.00,-60.00 -160.00,-40.00" fill="black"/>
<polygon points="-160.00,-40.00 -160.00,-60.00 -140.00,-60.00 -140.00,-40.00" fill="white"/>
<polygon points="-140.00,-40.00 -140.00,-60.00 -120.00,-60.00 -120.00,-40.00" fill="black"/>
<polygon points="-120.00,-40.00 -120.00,-60.00 -100.00,-60.00 -100.00,-40.00" fill="white"/>
<polygon points="-100.00,-40.00 -100.00,-60.00 -80.00,-60.00 -80.00,-40.00" fill="black"/>
<polygon points="-80.00,-40.00 -80.00,-60.00 -60.00,-60.00 -60.00,-40.00" fill="white"/>
<polygon points="-60.00,-40.00 -60.00,-60.00 -40.00,-60.00 -40.00,-40.00" fill="black"/>
<polygon points="-40.00,-40.00 -40.00,-60.00 -20.00,-60.00 -20.00,-40.00" fill="white"/>
<polygon points="-20.00,-40.00 -20.00,-60.00 0.00,-60.00 0.00,-40.00" fill="black"/>
<polygon points="-200.00,-60.00 -200.00,-80.00 -180.00,-80.00 -180.00,-60.00" fill="black"/>
<polygon points="-180.00,-60.00 -180.00,-80.00 -160.00,-80.00 -160.00,-60.00" fill="white"/>
<polygon points="-160.00,-60.00 -160.00,-80.00 -140.00,-80.00 -140.00,-60.00" fill="black"/>
<polygon points="-140.00,-60.00 -140.00,-80.00 -120.00,-80.00 -120.00,-60.00" fill="white"/>
<polygon points="-120.00,-60.00 -120.00,-80.00 -100.00,-80.00 -100.00,-60.00" fill="black"/>
<polygon points="-100.00,-60.00 -100.00,-80.00 -80.00,-80.00 -80.00,-60.00" fill="white"/>
<polygon points="-80.00,-60.00 -80.00,-80.00 -60.00,-80.00 -60.00,-60.00" fill="black"/>
<polygon points="-60.00,-60.00 -60.00,-80.00 -40.00,-80.00 -40.00,-60.00" fill="white"/>
<polygon points="-40.00,-60.00 -40.00,-80.00 -20.00,-80.00 -20.00,-60.00" fill="black"/>
<polygon points="-20.00,-60.00 -20.00,-80.00 0.00,-80.00 0.00,-60.00" fill="white"/>
<polygon points="-200.00,-80.00 -200.00,-100.00 -180.00,-100.00 -180.00,-80.00" fill="white"/>
<polygon points="-180.00,-80.00 -180.00,-100.00 -160.00,-100.00 -160.00,-80.00" fill="black"/>
<polygon points="-160.00,-80.00 -160.00,-100.00 -140.00,-100.00 -140.00,-80.00" fill="white"/>
<polygon points="-140.00,-80.00 -140.00,-100.00 -120.00,-100.00 -120.00,-80.00" fill="black"/>
<polygon points="-120.00,-80.00 -120.00,-100.00 -100.00,-100.00 -100.00,-80.00" fill="white"/>
<polygon points="-100.00,-80.00 -100.00,-100.00 -80.00,-100.00 -80.00,-80.00" fill="black"/>
<polygon points="-80.00,-80.00 -80.00,-100.00 -60.00,-100.00 -60.00,-80.00" fill="white"/>
<polygon points="-60.00,-80.00 -60.00,-100.00 -40.00,-100.00 -40.00,-80.00" fill="black"/>
<polygon points="-40.00,-80.00 -40.00,-100.00 -20.00,-100.00 -20.00,-80.00" fill="white"/>
<polygon points="-20.00,-80.00 -20.00,-100.00 0.00,-100.00 0.00,-80.00" fill="black"/></svg>