<?xml version="1.0" encoding="UTF-8" standalone="no"?>
<svg version="1.1"
     width="407.62mm"
     height="313.79mm"
     viewBox="-422.72 -78.45 407.62 313.79"
     preserveAspectRatio="none"
     xmlns="http://www.w3.org/2000/svg">
<polygon points="-15.10,-52.30 -218.91,-78.45 -422.72,235.34 -15.10,117.67" fill="white"/>
<polygon points="-218.91,-78.45 -229.63,-61.93 -198.53,-58.83 -189.79,-74.71" fill="black"/>
<polygon points="-189.79,-74.71 -198.53,-58.83 -170.38,-56.03 -163.32,-71.31" fill="white"/>
<polygon points="-163.32,-71.31 -170.38,-56.03 -144.79,-53.49 -139.16,-68.21" fill="black"/>
<polygon points="-139.16,-68.21 -144.79,-53.49 -121.43,-51.16 -117.00,-65.37" fill="white"/>
<polygon points="-117.00,-65.37 -121.43,-51.16 -100.02,-49.03 -96.62,-62.76" fill="black"/>
<polygon points="-96.62,-62.76 -100.02,-49.03 -80.32,-47.07 -77.81,-60.34" fill="white"/>
<polygon points="-77.81,-60.34 -80.32,-47.07 -62.13,-45.26 -60.39,-58.11" fill="black"/>
<polygon points="-60.39,-58.11 -62.13,-45.26 -45.29,-43.58 -44.21,-56.03" fill="white"/>
<polygon points="-44.21,-56.03 -45.29,-43.58 -29.65,-42.02 -29.15,-54.10" fill="black"/>
<polygon points="-29.15,-54.10 -29.65,-42.02 -15.10,-40.58 -15.10,-52.30" fill="white"/>
<polygon points="-229.63,-61.93 -241.55,-43.58 -208.18,-41.29 -198.53,-58.83" fill="white"/>
<polygon points="-198.53,-58.83 -208.18,-41.29 -178.14,-39.22 -170.38,-56.03" fill="black"/>
<polygon points="-170.38,-56.03 -178.14,-39.22 -150.97,-37.36 -144.79,-53.49" fill="white"/>
<polygon points="-144.79,-53.49 -150.97,-37.36 -126.27,-35.66 -121.43,-51.16" fill="black"/>
<polygon points="-121.43,-51.16 -126.27,-35.66 -103.71,-34.11 -100.02,-49.03" fill="white"/>
<polygon points="-100.02,-49.03 -103.71,-34.11 -83.03,-32.69 -80.32,-47.07" fill="black"/>
<polygon points="-80.32,-47.07 -83.03,-32.69 -64.01,-31.38 -62.13,-45.26" fill="white"/>
<polygon points="-62.13,-45.26 -64.01,-31.38 -46.45,-30.17 -45.29,-43.58" fill="black"/>
<polygon points="-45.29,-43.58 -46.45,-30.17 -30.19,-29.05 -29.65,-42.02" fill="white"/>
<polygon points="-29.65,-42.02 -30.19,-29.05 -15.10,-28.02 -15.10,-40.58" fill="black"/>
<polygon points="-241.55,-43.58 -254.87,-23.07 -218.91,-21.79 -208.18,-41.29" fill="black"/>
<polygon points="-208.18,-41.29 -218.91,-21.79 -186.73,-20.64 -178.14,-39.22" fill="white"/>
<polygon points="-178.14,-39.22 -186.73,-20.64 -157.76,-19.61 -150.97,-37.36" fill="black"/>
<polygon points="-150.97,-37.36 -157.76,-19.61 -131.56,-18.68 -126.27,-35.66" fill="white"/>
<polygon points="-126.27,-35.66 -131.56,-18.68 -107.74,-17.83 -103.71,-34.11" fill="black"/>
<polygon points="-103.71,-34.11 -107.74,-17.83 -85.99,-17.05 -83.03,-32.69" fill="white"/>
<polygon points="-83.03,-32.69 -85.99,-17.05 -66.05,-16.34 -64.01,-31.38" fill="black"/>
<polygon points="-64.01,-31.38 -66.05,-16.34 -47.71,-15.69 -46.45,-30.17" fill="white"/>
<polygon points="-46.45,-30.17 -47.71,-15.69 -30.77,-15.09 -30.19,-29.05" fill="black"/>
<polygon points="-30.19,-29.05 -30.77,-15.09 -15.10,-14.53 -15.10,-28.02" fill="white"/>
<polygon points="-254.87,-23.07 -269.86,0.00 -230.90,0.00 -218.91,-21.79" fill="white"/>
<polygon points="-218.91,-21.79 -230.90,0.00 -196.26,0.00 -186.73,-20.64" fill="black"/>
<polygon points="-186.73,-20.64 -196.26,0.00 -165.27,0.00 -157.76,-19.61" fill="white"/>
<polygon points="-157.76,-19.61 -165.27,0.00 -137.38,0.00 -131.56,-18.68" fill="black"/>
<polygon points="-131.56,-18.68 -137.38,0.00 -112.15,-0.00 -107.74,-17.83" fill="white"/>
<polygon points="-107.74,-17.83 -112.15,-0.00 -89.21,0.00 -85.99,-17.05" fill="black"/>
<polygon points="-85.99,-17.05 -89.21,0.00 -68.26,0.00 -66.05,-16.34" fill="white"/>
<polygon points="-66.05,-16.34 -68.26,0.00 -49.07,0.00 -47.71,-15.69" fill="black"/>
<polygon points="-47.71,-15.69 -49.07,0.00 -31.40,0.00 -30.77,-15.09" fill="white"/>
<polygon points="-30.77,-15.09 -31.40,0.00 -15.10,0.00 -15.10,-14.53" fill="black"/>
<polygon points="-269.86,0.00 -286.84,26.15 -244.38,24.51 -230.90,0.00" fill="black"/>
<polygon points="-230.90,0.00 -244.38,24.51 -206.92,23.07 -196.26,0.00" fill="white"/>
<polygon points="-196.26,0.00 -206.92,23.07 -173.62,21.79 -165.27,0.00" fill="black"/>
<polygon points="-165.27,0.00 -173.62,21.79 -143.82,20.64 -137.38,0.00" fill="white"/>
<polygon points="-137.38,0.00 -143.82,20.64 -117.00,19.61 -112.15,-0.00" fill="black"/>
<polygon points="-112.15,-0.00 -117.00,19.61 -92.74,18.68 -89.21,0.00" fill="white"/>
<polygon points="-89.21,0.00 -92.74,18.68 -70.68,17.83 -68.26,0.00" fill="black"/>
<polygon points="-68.26,0.00 -70.68,17.83 -50.54,17.05 -49.07,0.00" fill="white"/>
<polygon points="-49.07,0.00 -50.54,17.05 -32.08,16.34 -31.40,0.00" fill="black"/>
<polygon points="-31.40,0.00 -32.08,16.34 -15.10,15.69 -15.10,0.00" fill="white"/>
<polygon points="-286.84,26.15 -306.25,56.03 -259.67,52.30 -244.38,24.51" fill="white"/>
<polygon points="-244.38,24.51 -259.67,52.30 -218.91,49.03 -206.92,23.07" fill="black"/>
<polygon points="-206.92,23.07 -218.91,49.03 -182.94,46.14 -173.62,21.79" fill="white"/>
<polygon points="-173.62,21.79 -182.94,46.14 -150.97,43.58 -143.82,20.64" fill="black"/>
<polygon points="-143.82,20.64 -150.97,43.58 -122.37,41.29 -117.00,19.61" fill="white"/>
<polygon points="-117.00,19.61 -122.37,41.29 -96.62,39.22 -92.74,18.68" fill="black"/>
<polygon points="-92.74,18.68 -96.62,39.22 -73.33,37.36 -70.68,17.83" fill="white"/>
<polygon points="-70.68,17.83 -73.33,37.36 -52.15,35.66 -50.54,17.05" fill="black"/>
<polygon points="-50.54,17.05 -52.15,35.66 -32.82,34.11 -32.08,16.34" fill="white"/>
<polygon points="-32.08,16.34 -32.82,34.11 -15.10,32.69 -15.10,15.69" fill="black"/>
<polygon points="-306.25,56.03 -328.65,90.52 -277.14,84.05 -259.67,52.30" fill="black"/>
<polygon points="-259.67,52.30 -277.14,84.05 -232.49,78.45 -218.91,49.03" fill="white"/>
<polygon points="-218.91,49.03 -232.49,78.45 -193.43,73.54 -182.94,46.14" fill="black"/>
<polygon points="-182.94,46.14 -193.43,73.54 -158.96,69.22 -150.97,43.58" fill="white"/>
<polygon points="-150.97,43.58 -158.96,69.22 -128.32,65.37 -122.37,41.29" fill="black"/>
<polygon points="-122.37,41.29 -128.32,65.37 -100.91,61.93 -96.62,39.22" fill="white"/>
<polygon points="-96.62,39.22 -100.91,61.93 -76.24,58.83 -73.33,37.36" fill="black"/>
<polygon points="-73.33,37.36 -76.24,58.83 -53.92,56.03 -52.15,35.66" fill="white"/>
<polygon points="-52.15,35.66 -53.92,56.03 -33.63,53.49 -32.82,34.11" fill="black"/>
<polygon points="-32.82,34.11 -33.63,53.49 -15.10,51.16 -15.10,32.69" fill="white"/>
<polygon points="-328.65,90.52 -354.78,130.74 -297.30,120.69 -277.14,84.05" fill="white"/>
<polygon points="-277.14,84.05 -297.30,120.69 -248.02,112.07 -232.49,78.45" fill="black"/>
<polygon points="-232.49,78.45 -248.02,112.07 -205.32,104.60 -193.43,73.54" fill="white"/>
<polygon points="-193.43,73.54 -205.32,104.60 -167.95,98.06 -158.96,69.22" fill="black"/>
<polygon points="-158.96,69.22 -167.95,98.06 -134.99,92.29 -128.32,65.37" fill="white"/>
<polygon points="-128.32,65.37 -134.99,92.29 -105.68,87.16 -100.91,61.93" fill="black"/>
<polygon points="-100.91,61.93 -105.68,87.16 -79.46,82.58 -76.24,58.83" fill="white"/>
<polygon points="-76.24,58.83 -79.46,82.58 -55.86,78.45 -53.92,56.03" fill="black"/>
<polygon points="-53.92,56.03 -55.86,78.45 -34.51,74.71 -33.63,53.49" fill="white"/>
<polygon points="-33.63,53.49 -34.51,74.71 -15.10,71.31 -15.10,51.16" fill="black"/>
<polygon points="-354.78,130.74 -385.66,178.29 -320.81,163.43 -297.30,120.69" fill="black"/>
<polygon points="-297.30,120.69 -320.81,163.43 -265.94,150.86 -248.02,112.07" fill="white"/>
<polygon points="-248.02,112.07 -265.94,150.86 -218.91,140.08 -205.32,104.60" fill="black"/>
<polygon points="-205.32,104.60 -218.91,140.08 -178.14,130.74 -167.95,98.06" fill="white"/>
<polygon points="-167.95,98.06 -178.14,130.74 -142.48,122.57 -134.99,92.29" fill="black"/>
<polygon points="-134.99,92.29 -142.48,122.57 -111.01,115.36 -105.68,87.16" fill="white"/>
<polygon points="-105.68,87.16 -111.01,115.36 -83.03,108.95 -79.46,82.58" fill="black"/>
<polygon points="-79.46,82.58 -83.03,108.95 -58.00,103.22 -55.86,78.45" fill="white"/>
<polygon points="-55.86,78.45 -58.00,103.22 -35.48,98.06 -34.51,74.71" fill="black"/>
<polygon points="-34.51,74.71 -35.48,98.06 -15.10,93.39 -15.10,71.31" fill="white"/>
<polygon points="-385.66,178.29 -422.72,235.34 -348.60,213.94 -320.81,163.43" fill="white"/>
<polygon points="-320.81,163.43 -348.60,213.94 -286.84,196.12 -265.94,150.86" fill="black"/>
<polygon points="-265.94,150.86 -286.84,196.12 -234.58,181.03 -218.91,140.08" fill="white"/>
<polygon points="-218.91,140.08 -234.58,181.03 -189.79,168.10 -178.14,130.74" fill="black"/>
<polygon points="-178.14,130.74 -189.79,168.10 -150.97,156.89 -142.48,122.57" fill="white"/>
<polygon points="-142.48,122.57 -150.97,156.89 -117.00,147.09 -111.01,115.36" fill="black"/>
<polygon points="-111.01,115.36 -117.00,147.09 -87.03,138.43 -83.03,108.95" fill="white"/>
<polygon points="-83.03,108.95 -87.03,138.43 -60.39,130.74 -58.00,103.22" fill="black"/>
<polygon points="-58.00,103.22 -60.39,130.74 -36.55,123.86 -35.48,98.06" fill="white"/>
<polygon points="-35.48,98.06 -36.55,123.86 -15.10,117.67 -15.10,93.39" fill="black"/>
<polygon points="-23.35,12.70 -23.48,19.37 -15.10,15.69" fill="lawngreen"/>
<polyline points="-15.10,-52.30 -218.91,-78.45 -422.72,235.34 -15.10,117.67 -15.10,-52.30" stroke="black" stroke-width="1px" stroke-opacity="0.1" fill="none"/></svg>